# xmcd CD database file
#
# Track frame offsets:
#	150
#	15180
#	25862
#	36575
#	46987
#	60125
#	71325
#	82607
#	98550
#	113025
#	124800
#	137710
#	151857
#	164815
#	174837
#	192825
#	209482
#	220875
#	230075
#	246637
#	260100
#	275700
#	293877
#
# Disc length: 4233 seconds
#
# Revision: 0
# Processed by: cddbd v1.5.1PL0 Copyright (c) Steve Scherf et al.
# Submitted via: CDex 1.51
#
DISCID=48108717
DTITLE=Tony Wilson - do your own thing
DYEAR=1992
DGENRE=Blues
TTITLE0=Do Your Own Thing
TTITLE1=Can't Waste a Good Thing
TTITLE2=Gotta Get A Good Thing Goin'
TTITLE3=Good Lovin' Never Hurt
TTITLE4=Let Me Love You
TTITLE5=We Got Love
TTITLE6=Sweet Kindalovin'
TTITLE7=I Fell Fine
TTITLE8=Do It
TTITLE9=Goodbye Baby Goodbye
TTITLE10=What Did I Do
TTITLE11=Nothin's To Deep
TTITLE12=Girl It's You
TTITLE13=Loving YXou
TTITLE14=Rainbow City
TTITLE15=To Love Somebody
TTITLE16=Baby You Touch My Soul
TTITLE17=Karen Won't Yiou Smile
TTITLE18=You're Everything I Need
TTITLE19=Time
TTITLE20=Now That I'm Loving You
TTITLE21=Do Your Own Talk
TTITLE22=Kiss On The Radio
EXTD=YEAR: 1992
EXTT0=
EXTT1=
EXTT2=
EXTT3=
EXTT4=
EXTT5=
EXTT6=
EXTT7=
EXTT8=
EXTT9=
EXTT10=
EXTT11=
EXTT12=
EXTT13=
EXTT14=
EXTT15=
EXTT16=
EXTT17=
EXTT18=
EXTT19=
EXTT20=
EXTT21=
EXTT22=
PLAYORDER=
